<svg xmlns="http://www.w3.org/2000/svg" version="1.1" xmlns:xlink="http://www.w3.org/1999/xlink" xmlns:svgjs="http://svgjs.com/svgjs" width="12" height="12"><svg width="12" height="12" viewBox="0 0 100 102" fill="none" xmlns="http://www.w3.org/2000/svg">
<g id="SvgjsG1005" filter="url(#filter0_i_271_54)">
<path id="SvgjsPath1004" d="M50.0645 0.490852C49.2454 1.12758 48.9971 2.35206 49.4687 3.45409C49.7666 4.16428 53.7132 8.93974 59.3724 15.3805C65.4288 22.311 71.3611 28.5314 79.8003 36.8578C87.346 44.3271 90.7465 47.4373 94.5193 50.3026C95.5867 51.0862 97.0511 52.2862 97.7958 52.923L99.1609 54.1229H97.895C96.4306 54.1229 96.927 53.7556 89.6047 60.3188C79.7507 69.184 67.1911 81.5267 62.4503 87.0369C61.0603 88.6532 59.1987 90.8083 58.3051 91.8368C57.3867 92.8654 56.1705 94.4327 55.5748 95.2899C54.4082 97.0041 52.4225 99.3306 52.2735 99.1592C52.2239 99.1102 52.0998 95.0205 52.0005 90.0491L51.8019 81.0614L52.4969 80.0819C53.1919 79.1023 53.1919 78.3186 52.5218 79.2492C52.3232 79.4941 52.075 79.6166 51.9757 79.5186C51.8516 79.4206 51.7771 77.8043 51.7523 75.9676V72.6126L53.5643 70.5309C54.5571 69.3799 56.2698 67.3473 57.3867 66.0004C58.4789 64.6535 59.7448 63.1351 60.2164 62.6453C61.7056 61.029 64.287 57.2331 64.287 56.6454C64.287 56.1311 64.2374 56.0821 63.741 56.3515C63.4183 56.5229 60.6631 59.0943 57.5853 62.0576L52.0253 67.4697L51.8268 66.3677C51.7027 65.7555 51.6282 64.3351 51.6778 63.1841C51.7523 61.1514 51.7771 61.0535 52.7452 59.878C53.2664 59.1923 54.6316 57.7229 55.7237 56.5719C58.7271 53.4617 60.266 51.0862 59.4469 50.7679C59.0498 50.6209 57.5108 51.723 54.1351 54.5393C53.1175 55.3964 52.1991 56.0821 52.0998 56.0821C51.8268 56.0821 51.5537 53.5597 51.6778 51.9679C51.7771 50.6454 51.8764 50.474 53.2912 48.9801C54.8301 47.3393 56.5676 45.2822 57.5357 43.9108C58.1562 43.0537 58.2555 42.1231 57.7342 42.1231C57.4364 42.1231 54.433 44.1557 52.77 45.5026C52.1991 45.9434 52.0005 45.9924 51.8516 45.7475C51.7275 45.5761 51.6282 43.9108 51.6282 42.0741V38.719L52.5962 38.1558C53.6139 37.5925 54.6067 36.368 54.6067 35.6823C54.6067 34.9721 53.6884 34.5558 52.7203 34.8252C52.2487 34.9476 51.7523 34.9721 51.6282 34.8987C51.3303 34.7272 51.2807 25.96 51.5786 25.96C52.1743 25.9845 56.3194 29.7314 66.1486 39.1109C70.8399 43.5924 73.7439 46.0414 74.3645 46.0414C74.6623 46.0414 73.0986 43.6659 71.6838 42.0006C70.8647 41.0455 69.4002 39.3558 68.4322 38.2047C65.8508 35.1925 56.1705 25.5681 53.043 22.8743C51.5289 21.6008 50.1141 20.5723 49.8411 20.5723C49.3198 20.5723 47.4086 22.2621 47.4086 22.7274C47.4086 22.8498 47.6072 22.9478 47.8305 22.9233C48.4759 22.8743 48.6248 24.1722 48.6248 29.7069L48.6496 34.5313L47.6816 34.3844C46.8625 34.2619 46.6639 34.3109 46.4406 34.7517C46.0931 35.364 46.5647 36.3925 47.7809 37.7639C48.4759 38.4986 48.6248 38.9149 48.7738 40.2129C49.022 42.6129 48.8482 44.4496 48.3766 44.4251C48.1532 44.4006 47.1604 43.7884 46.1427 43.0292C44.1322 41.5353 43.189 41.0945 42.7174 41.3884C42.1961 41.6823 42.5933 42.4659 44.1322 44.1557C47.483 47.8781 48.6496 49.2985 48.7738 49.7883C48.9971 50.6699 48.7986 55.4209 48.5255 55.5189C48.4014 55.5433 47.1604 54.5882 45.7952 53.3638C42.0968 50.0577 39.4658 48.4659 39.4658 49.5434C39.4658 50.0332 40.682 51.6985 42.1961 53.2658C42.9656 54.074 44.2811 55.6168 45.125 56.6944C45.9441 57.7719 47.1355 59.1923 47.7561 59.878L48.8979 61.078V63.331C48.8979 64.6535 48.7986 65.682 48.6496 65.7555C48.5007 65.8534 47.8802 65.4861 47.2597 64.9718C39.7636 58.6535 37.4056 57.0617 37.8524 58.58C38.1254 59.4862 38.6218 60.1474 40.7813 62.4249C46.7632 68.7677 48.0788 70.1636 48.4511 70.7513C49.022 71.584 49.1212 76.1635 48.5504 76.1635C48.0291 76.1635 45.4725 73.8125 36.1149 64.6779C25.8637 54.6617 24.8709 53.7311 24.6971 53.927C24.4985 54.1229 29.3635 60.7841 31.6471 63.429C36.1397 68.6208 37.8276 70.4085 43.1393 75.6493C46.1923 78.686 48.7986 81.3553 48.9227 81.5757C49.2702 82.2369 49.2205 94.5307 48.8482 94.5307C48.5504 94.5307 42.7918 88.8491 30.1578 76.139C20.9739 66.882 13.4283 60.0984 7.84348 56.0331C6.75134 55.2495 5.83295 54.6617 5.75849 54.7352C5.60956 54.8821 6.57759 56.376 8.04205 58.2862C9.3824 60.0249 12.0135 62.9392 16.8784 68.0575C18.5911 69.8452 20.4775 71.9024 21.098 72.6126C21.7186 73.3227 23.7787 75.6003 25.69 77.6819C27.6012 79.7635 29.9592 82.3839 30.9024 83.5104C31.8705 84.6369 33.1115 86.0573 33.6576 86.6695C34.2285 87.2818 35.1717 88.3593 35.7674 89.0695C37.9269 91.6164 45.3981 99.8204 46.515 100.898C47.6568 101.976 47.7313 102 49.2454 102C50.958 102 52.1246 101.461 52.1246 100.678C52.1246 100.114 65.131 87.845 71.6093 82.2859C73.0986 81.0125 75.0098 79.3472 75.8289 78.588C77.2189 77.3145 79.0557 75.7227 86.7255 69.184C90.6721 65.8289 91.8883 64.8004 95.1151 62.229C98.7886 59.2658 99.707 58.3107 99.9304 57.2086C100.203 55.7148 99.6573 53.8291 98.5652 52.6046C98.0688 52.0168 97.3738 51.1597 97.0511 50.6944C96.0334 49.225 91.9628 44.3026 89.9274 42.0986C88.8601 40.9476 87.0481 38.9149 85.8815 37.568C83.8462 35.266 82.7541 34.0905 76.8218 27.8212C74.0418 24.8824 73.0986 23.8294 67.8861 17.9519C63.5424 13.0295 59.0249 7.56833 55.2273 2.62144C54.433 1.5684 53.5394 0.539833 53.2664 0.343918C52.5218 -0.170364 50.8091 -0.0968933 50.0645 0.490852Z" fill="#6C757D"></path>
<path id="SvgjsPath1003" d="M41.8983 7.00517C40.0863 8.74393 36.5865 12.0745 34.1292 14.45C28.7679 19.6173 21.7186 26.156 17.8961 29.5111C16.3572 30.858 14.0737 32.8906 12.8326 34.0171C11.5667 35.1437 8.38959 37.96 5.73371 40.2375C0.943208 44.4007 0 45.4293 0 46.4823C0 47.9272 0.943208 48.7109 2.6807 48.7354H3.9714L9.60583 43.3966C19.1372 34.3845 28.7927 24.7111 31.8705 21.0867C32.3918 20.4744 33.608 19.1275 34.576 18.1234C36.1149 16.4826 39.6147 12.3684 41.8983 9.47862C43.1145 7.91129 45.4974 4.16439 45.3485 4.01745C45.274 3.94398 43.7351 5.2909 41.8983 7.00517Z" fill="#6C757D"></path>
<path id="SvgjsPath1002" d="M38.2496 31.568C25.3673 44.4006 20.8499 49.127 20.8499 49.7883C20.8499 50.2046 21.1725 50.6944 21.8923 51.2821C23.0838 52.2862 23.332 52.3597 23.332 51.674C23.332 51.4291 23.6298 50.8903 24.027 50.4985C24.995 49.4944 28.1721 46.0169 30.4309 43.47C34.303 39.1108 36.8844 36.1721 37.6042 35.266C38.0262 34.7762 39.4906 33.0374 40.8806 31.3966C43.4372 28.4089 45.4229 25.715 45.4229 25.2497C45.4229 25.1028 45.2988 24.9804 45.1251 24.9804C44.9761 24.9804 41.8735 27.9436 38.2496 31.568Z" fill="#6C757D"></path>
<path id="SvgjsPath1001" d="M78.0381 50.6698C78.1374 50.8167 77.9388 51.0616 77.5665 51.2331C77.219 51.38 75.9283 52.629 74.7121 53.9759C73.471 55.3473 71.4109 57.6003 70.0953 59.0207C60.6384 69.2084 53.7629 77.3634 54.2345 77.8287C54.2842 77.8777 54.7061 77.6818 55.1529 77.3634C56.5429 76.4328 79.1303 54.0983 79.4281 53.3637C79.6763 52.8249 79.6515 52.531 79.304 51.7963C79.0558 51.331 78.6338 50.8167 78.3608 50.6698C78.0133 50.4739 77.914 50.4739 78.0381 50.6698Z" fill="#6C757D"></path>
</g>
<defs>
<filter id="SvgjsFilter1000" x="0" y="0" width="100" height="106" filterUnits="userSpaceOnUse" color-interpolation-filters="sRGB">
<feFlood flood-opacity="0" result="BackgroundImageFix"></feFlood>
<feBlend mode="normal" in="SourceGraphic" in2="BackgroundImageFix" result="shape"></feBlend>
<feColorMatrix in="SourceAlpha" type="matrix" values="0 0 0 0 0 0 0 0 0 0 0 0 0 0 0 0 0 0 127 0" result="hardAlpha"></feColorMatrix>
<feOffset dy="4"></feOffset>
<feGaussianBlur stdDeviation="2"></feGaussianBlur>
<feComposite in2="hardAlpha" operator="arithmetic" k2="-1" k3="1"></feComposite>
<feColorMatrix type="matrix" values="0 0 0 0 0 0 0 0 0 0 0 0 0 0 0 0 0 0 0.25 0"></feColorMatrix>
<feBlend mode="normal" in2="shape" result="effect1_innerShadow_271_54"></feBlend>
</filter>
</defs>
</svg><style>@media (prefers-color-scheme: light) { :root { filter: none; } }
@media (prefers-color-scheme: dark) { :root { filter: contrast(0.3846153846153846) brightness(4.5); } }
</style></svg>